<?xml version="1.0" encoding="UTF-8"?>
<svg width="256px" height="256px" viewBox="0 0 256 256" version="1.1" xmlns="http://www.w3.org/2000/svg" xmlns:xlink="http://www.w3.org/1999/xlink">
    <title>logo copy</title>
    <g id="页面-1" stroke="none" stroke-width="1" fill="none" fill-rule="evenodd">
        <g id="-" transform="translate(-428, -67)" fill="#FAFAFA" fill-rule="nonzero">
            <g id="logo-copy" transform="translate(428, 67)">
                <path d="M200,0 C230.927946,-5.68137151e-15 256,25.072054 256,56 L256,200 C256,230.927946 230.927946,256 200,256 L56,256 C25.072054,256 3.78758101e-15,230.927946 0,200 L0,56 C-3.78758101e-15,25.072054 25.072054,5.68137151e-15 56,0 L200,0 Z M72.3903395,142.436059 C70.8855594,141.022477 68.5197599,141.096408 67.1061786,142.601189 L62.3407407,147.674074 C47.1703704,163.318519 46.4592593,181.57037 60.6814815,195.555556 C74.6666667,209.777778 93.8666667,208.82963 108.562963,193.659259 L113.52217,188.545077 C113.528112,188.538949 113.534033,188.532801 113.539933,188.526633 C114.970155,187.031401 114.917454,184.659852 113.422222,183.22963 L110.696296,180.622222 L107.97037,178.014815 C106.462564,176.572566 104.072882,176.619369 102.622705,178.119552 L98.3703704,182.518519 C90.0740741,191.051852 78.4592593,192.237037 71.1111111,184.888889 C64.237037,178.014815 65.1851852,167.585185 73.4814815,158.103704 L78.0163626,152.786947 C79.3288985,151.248111 79.2111809,148.952087 77.7481481,147.555556 L75.1616642,145.086639 L75.1198379,145.046673 L72.4148148,142.459259 C72.4066913,142.451489 72.3985328,142.443755 72.3903395,142.436059 Z M188.526633,142.460067 C187.031401,141.029845 184.659852,141.082546 183.22963,142.577778 L180.622222,145.303704 L178.014815,148.02963 C176.572566,149.537436 176.619369,151.927118 178.119552,153.377295 L182.518519,157.62963 C195.555556,170.192593 189.62963,189.62963 172.562963,189.62963 C166.162963,189.62963 161.659259,186.548148 146.488889,171.377778 L130.624175,155.716457 C129.172153,154.283051 126.835337,154.290589 125.392593,155.733333 L120.177778,160.948148 C118.735101,162.390825 118.727753,164.727589 120.161328,166.17931 L136.296296,182.518519 C149.096296,195.318519 158.103704,202.42963 164.266667,204.325926 C188.681481,211.674074 212.148148,187.259259 204.088889,162.844444 C202.666667,158.577778 197.925926,151.466667 193.659259,147.437037 L188.545077,142.47783 C188.538949,142.471888 188.532801,142.465967 188.526633,142.460067 Z M106.903704,104.296296 L106.854809,104.300399 C105.767311,104.46961 99.9280423,109.849735 93.6296296,116.148148 L87.9418641,121.836473 C84.5704156,125.272757 84.6229752,130.791514 88.0592593,134.162963 L93.9600427,139.952411 C94.2138357,140.201415 94.4652514,140.452831 94.7142558,140.706624 L104.024865,150.196283 C104.051944,150.223883 104.079459,150.251051 104.107401,150.277778 C105.565844,151.67281 107.879042,151.621406 109.274074,150.162963 L111.45144,147.886625 C111.738126,147.586909 112.028132,147.290387 112.321405,146.997114 L114.488889,144.82963 C115.936013,143.382505 115.955843,141.042443 114.53345,139.571002 L110.222222,135.111111 L106.785185,131.555556 C104.873317,129.577761 104.887569,126.436141 106.817303,124.475774 L112.807027,118.390967 C114.332376,116.841414 115.187299,114.754243 115.187299,112.579891 C115.187299,108.004988 111.478607,104.296296 106.903704,104.296296 Z M148.622222,104.296296 C144.047319,104.296296 140.338627,108.004988 140.338627,112.579891 C140.338627,114.754243 141.19355,116.841414 142.718899,118.390967 L148.708623,124.475774 C150.638357,126.436141 150.652609,129.577761 148.740741,131.555556 L145.303704,135.111111 L140.992476,139.571002 C139.570083,141.042443 139.589913,143.382505 141.037037,144.82963 L143.204521,146.997114 C143.497794,147.290387 143.7878,147.586909 144.074485,147.886625 L146.251852,150.162963 C147.646884,151.621406 149.960082,151.67281 151.418525,150.277778 C151.446467,150.251051 151.473982,150.223883 151.501061,150.196283 L160.81167,140.706624 C161.060675,140.452831 161.31209,140.201415 161.565883,139.952411 L167.466667,134.162963 C170.902951,130.791514 170.95551,125.272757 167.584062,121.836473 L161.896296,116.148148 C155.597884,109.849735 149.758614,104.46961 148.671117,104.300399 L148.622222,104.296296 Z M91.7333333,51.4653029 C67.3185185,44.1171548 43.8518519,68.5319696 51.9111111,92.9467844 C53.3333333,97.2134511 58.0740741,104.324562 62.3407407,108.354192 L67.4549226,113.313398 C67.4610506,113.319341 67.4671988,113.325262 67.4733672,113.331162 C68.9685993,114.761384 71.3401484,114.708683 72.7703704,113.213451 L75.3777778,110.487525 L77.9851852,107.761599 C79.4274344,106.253793 79.3806311,103.864111 77.8804482,102.413934 L73.4814815,98.1615992 C60.4444444,85.5986362 66.3703704,66.1615992 83.437037,66.1615992 C89.837037,66.1615992 94.3407407,69.2430807 109.511111,84.4134511 L125.375825,100.074771 C126.827847,101.508178 129.164663,101.50064 130.607407,100.057896 L133.214815,97.4504881 L135.822222,94.8430807 C137.264899,93.4004043 137.272247,91.0636401 135.838672,89.611919 L119.703704,73.2727103 C106.903704,60.4727103 97.8962963,53.3615992 91.7333333,51.4653029 Z M195.318519,60.2356733 C181.333333,46.0134511 162.133333,46.9615992 147.437037,62.1319696 L142.47783,67.2461515 C142.471888,67.2522794 142.465967,67.2584276 142.460067,67.2645961 C141.029845,68.7598281 141.082546,71.1313772 142.577778,72.5615992 L145.303704,75.1690066 L148.02963,77.776414 C149.537436,79.2186632 151.927118,79.17186 153.377295,77.671677 L157.62963,73.2727103 C165.925926,64.739377 177.540741,63.5541918 184.888889,70.90234 C191.762963,77.776414 190.814815,88.2060437 182.518519,97.6875251 L177.983637,103.004282 C176.671101,104.543118 176.788819,106.839142 178.251852,108.235673 L180.838336,110.70459 L180.880162,110.744556 L183.585185,113.33197 L183.60966,113.35517 C185.114441,114.768752 187.48024,114.69482 188.893821,113.19004 L193.659259,108.117155 C208.82963,92.4727103 209.540741,74.2208585 195.318519,60.2356733 Z" id="Combined-Shape"></path>
            </g>
        </g>
    </g>
</svg>