<?xml version="1.0" encoding="UTF-8"?>
<svg width="256px" height="256px" viewBox="0 0 256 256" version="1.1" xmlns="http://www.w3.org/2000/svg" xmlns:xlink="http://www.w3.org/1999/xlink">
    <title>logo</title>
    <g id="页面-1" stroke="none" stroke-width="1" fill="none" fill-rule="evenodd">
        <g id="-" transform="translate(-132, -67)" fill="#FAFAFA" fill-rule="nonzero">
            <g id="logo" transform="translate(132, 67)">
                <path d="M256,0 L256,256 L0,256 L0,0 L256,0 Z M69.6888889,139.851852 L62.3407407,147.674074 C47.1703704,163.318519 46.4592593,181.57037 60.6814815,195.555556 C74.6666667,209.777778 93.8666667,208.82963 108.562963,193.659259 L116.148148,185.837037 L105.244444,175.407407 L98.3703704,182.518519 C90.0740741,191.051852 78.4592593,192.237037 71.1111111,184.888889 C64.237037,178.014815 65.1851852,167.585185 73.4814815,158.103704 L80.3555556,150.044444 L75.1407407,145.066667 L69.6888889,139.851852 Z M185.837037,139.851852 L175.407407,150.755556 L182.518519,157.62963 C195.555556,170.192593 189.62963,189.62963 172.562963,189.62963 C166.162963,189.62963 161.659259,186.548148 146.488889,171.377778 L128,153.125926 L117.57037,163.555556 L136.296296,182.518519 C149.096296,195.318519 158.103704,202.42963 164.266667,204.325926 C188.681481,211.674074 212.148148,187.259259 204.088889,162.844444 C202.666667,158.577778 197.925926,151.466667 193.659259,147.437037 L185.837037,139.851852 Z M106.903704,104.296296 C105.955556,104.296296 100.02963,109.748148 93.6296296,116.148148 L81.7777778,128 L94.3407407,140.325926 L106.666667,152.888889 L111.881481,147.437037 L117.096296,142.222222 L110.222222,135.111111 L103.348148,128 L117.096296,114.033607 C115.543773,112.439194 114.167611,111.040585 112.96781,109.837782 L112.464407,109.334283 C109.098272,105.975625 107.244704,104.296296 106.903704,104.296296 Z M148.622222,104.296296 C148.281222,104.296296 146.427654,105.975625 143.061519,109.334283 L142.558116,109.837782 C141.358315,111.040585 139.982153,112.439194 138.42963,114.033607 L152.177778,128 L145.303704,135.111111 L138.42963,142.222222 L143.644444,147.437037 L148.859259,152.888889 L161.185185,140.325926 L173.748148,128 L161.896296,116.148148 C155.496296,109.748148 149.57037,104.296296 148.622222,104.296296 Z M91.7333333,51.4653029 C67.3185185,44.1171548 43.8518519,68.5319696 51.9111111,92.9467844 C53.3333333,97.2134511 58.0740741,104.324562 62.3407407,108.354192 L70.162963,115.939377 L80.5925926,105.035673 L73.4814815,98.1615992 C60.4444444,85.5986362 66.3703704,66.1615992 83.437037,66.1615992 C89.837037,66.1615992 94.3407407,69.2430807 109.511111,84.4134511 L128,102.665303 L138.42963,92.2356733 L119.703704,73.2727103 C106.903704,60.4727103 97.8962963,53.3615992 91.7333333,51.4653029 Z M195.318519,60.2356733 C181.333333,46.0134511 162.133333,46.9615992 147.437037,62.1319696 L139.851852,69.9541918 L145.303704,75.1690066 L150.755556,80.3838214 L157.62963,73.2727103 C165.925926,64.739377 177.540741,63.5541918 184.888889,70.90234 C191.762963,77.776414 190.814815,88.2060437 182.518519,97.6875251 L175.644444,105.746784 L180.859259,110.724562 L186.311111,115.939377 L193.659259,108.117155 C208.82963,92.4727103 209.540741,74.2208585 195.318519,60.2356733 Z" id="Combined-Shape"></path>
            </g>
        </g>
    </g>
</svg>