<svg xmlns="http://www.w3.org/2000/svg" width="240" height="240" viewBox="0 0 240 240"><defs><linearGradient id="a" x1="99.929%" x2=".071%" y1="100%" y2="0%"><stop offset="0%" stop-color="#37BBD2"/><stop offset="100%" stop-color="#57E591"/></linearGradient></defs><path fill="url(#a)" d="M177.837037,131.851852 L185.659259,139.437037 C189.925926,143.466667 194.666667,150.577778 196.088889,154.844444 C204.148148,179.259259 180.681481,203.674074 156.266667,196.325926 C150.103704,194.42963 141.096296,187.318519 128.296296,174.518519 L109.57037,155.555556 L114.785185,150.340741 L120,145.125926 L138.488889,163.377778 C153.659259,178.548148 158.162963,181.62963 164.562963,181.62963 C181.62963,181.62963 187.555556,162.192593 174.518519,149.62963 L167.407407,142.755556 L172.622222,137.303704 L177.837037,131.851852 Z M61.6888889,131.851852 L67.1407407,137.066667 L72.3555556,142.044444 L65.4814815,150.103704 C57.1851852,159.585185 56.237037,170.014815 63.1111111,176.888889 C70.4592593,184.237037 82.0740741,183.051852 90.3703704,174.518519 L97.2444444,167.407407 L102.696296,172.622222 L108.148148,177.837037 L100.562963,185.659259 C85.8666667,200.82963 66.6666667,201.777778 52.6814815,187.555556 C38.4592593,173.57037 39.1703704,155.318519 54.3407407,139.674074 L61.6888889,131.851852 Z M98.9037037,96.2962963 C99.2447044,96.2962963 101.098272,97.9756253 104.464407,101.334283 L104.96781,101.837782 C106.167611,103.040585 107.543773,104.439194 109.096296,106.033607 L95.3481481,120 L102.222222,127.111111 L109.096296,134.222222 L103.881481,139.437037 L98.6666667,144.888889 L86.3407407,132.325926 L73.7777778,120 L85.6296296,108.148148 C92.0296296,101.748148 97.9555556,96.2962963 98.9037037,96.2962963 Z M140.622222,96.2962963 C141.57037,96.2962963 147.496296,101.748148 153.896296,108.148148 L165.748148,120 L153.185185,132.325926 L140.859259,144.888889 L135.644444,139.437037 L130.42963,134.222222 L144.177778,120 L130.42963,106.033607 C132.093047,104.325307 133.55401,102.841783 134.812517,101.583036 L135.305122,101.091525 C138.517172,97.8947058 140.289539,96.2962963 140.622222,96.2962963 Z M83.7333333,43.4653029 C89.8962963,45.3615992 98.9037037,52.4727103 111.703704,65.2727103 L130.42963,84.2356733 L120,94.6653029 L101.511111,76.4134511 C86.3407407,61.2430807 81.837037,58.1615992 75.437037,58.1615992 C58.3703704,58.1615992 52.4444444,77.5986362 65.4814815,90.1615992 L72.5925926,97.0356733 L62.162963,107.939377 L54.3407407,100.354192 C50.0740741,96.3245622 45.3333333,89.2134511 43.9111111,84.9467844 C35.8518519,60.5319696 59.3185185,36.1171548 83.7333333,43.4653029 Z M187.318519,52.2356733 C201.540741,66.2208585 200.82963,84.4727103 185.659259,100.117155 L178.311111,107.939377 L172.859259,102.724562 L167.644444,97.7467844 L174.518519,89.6875251 C182.814815,80.2060437 183.762963,69.776414 176.888889,62.90234 C169.540741,55.5541918 157.925926,56.739377 149.62963,65.2727103 L142.755556,72.3838214 L131.851852,61.9541918 L139.437037,54.1319696 C154.133333,38.9615992 173.333333,38.0134511 187.318519,52.2356733 Z"/></svg>