<?xml version="1.0" encoding="UTF-8"?>
<svg width="256px" height="256px" viewBox="0 0 256 256" version="1.1" xmlns="http://www.w3.org/2000/svg" xmlns:xlink="http://www.w3.org/1999/xlink">
    <title>logo copy 2</title>
    <defs>
        <linearGradient x1="100%" y1="50%" x2="0%" y2="50%" id="linearGradient-1">
            <stop stop-color="#93EEFE" offset="0%"></stop>
            <stop stop-color="#A1FCC6" offset="100%"></stop>
        </linearGradient>
        <linearGradient x1="100%" y1="50%" x2="0%" y2="50%" id="linearGradient-2">
            <stop stop-color="#93EEFE" offset="0%"></stop>
            <stop stop-color="#A1FCC6" offset="100%"></stop>
        </linearGradient>
    </defs>
    <g id="页面-1" stroke="none" stroke-width="1" fill="none" fill-rule="evenodd">
        <g id="--copy" transform="translate(-428, -67)" fill-rule="nonzero">
            <g id="logo-copy-2" transform="translate(428, 67)">
                <path d="M1.68424945e-14,128 L1.68424945e-14,56 C1.30549135e-14,25.072054 25.072054,2.2523866e-14 56,1.68424945e-14 L128,1.68424945e-14 L200,1.68424945e-14 C230.927946,1.1161123e-14 256,25.072054 256,56 L256,128 L256,200 C256,230.927946 230.927946,256 200,256 L128,256 L56,256 C25.072054,256 2.06300755e-14,230.927946 1.68424945e-14,200 L1.68424945e-14,128 Z" id="路径" fill="#0F0F0F" transform="translate(128, 128) scale(-1, 1) rotate(-180) translate(-128, -128)"></path>
                <path d="M136.813777,92.9467844 C144.873037,68.5319696 121.40637,44.1171548 96.9915552,51.4653029 C90.8285923,53.3615992 81.8211849,60.4727103 69.0211849,73.2727103 L50.2952589,92.2356733 L55.5100738,97.4504881 L60.7248886,102.665303 L79.2137775,84.4134511 C94.3841478,69.2430807 98.8878515,66.1615992 105.287852,66.1615992 C122.354518,66.1615992 128.280444,85.5986362 115.243407,98.1615992 L108.132296,105.035673 L113.347111,110.487525 L118.561926,115.939377 L126.384148,108.354192 C130.650814,104.324562 135.391555,97.2134511 136.813777,92.9467844 Z" id="路径" fill="url(#linearGradient-1)" transform="translate(94.3624, 83.0379) scale(-1, 1) rotate(-360) translate(-94.3624, -83.0379)"></path>
                <path d="M117.096296,143.151578 L103.348148,129.185185 L110.222222,122.074074 L117.096296,114.962963 L111.881481,109.748148 L106.666667,104.296296 L94.3407407,116.859259 L81.7777778,129.185185 L93.6296296,141.037037 C100.02963,147.437037 105.955556,152.888889 106.903704,152.888889 C107.377778,152.888889 110.775309,149.643119 117.096296,143.151578 Z" id="路径" fill-opacity="0.96" fill="#FFFFFF" transform="translate(99.437, 128.5926) scale(-1, 1) rotate(-180) translate(-99.437, -128.5926)"></path>
                <path d="M173.748148,143.151578 L160,129.185185 L166.874074,122.074074 L173.748148,114.962963 L168.533333,109.748148 L163.318519,104.296296 L150.992593,116.859259 L138.42963,129.185185 L150.281481,141.037037 C156.681481,147.437037 162.607407,152.888889 163.555556,152.888889 C164.02963,152.888889 167.42716,149.643119 173.748148,143.151578 Z" id="路径" fill-opacity="0.96" fill="#FFFFFF" transform="translate(156.0889, 128.5926) rotate(-180) translate(-156.0889, -128.5926)"></path>
                <path d="M73.4814815,187.403571 C65.1851852,177.922089 64.237037,167.49246 71.1111111,160.618386 C78.4592593,153.270237 90.0740741,154.455423 98.3703704,162.988756 L105.244444,170.099867 L110.696296,164.885052 L116.148148,159.670237 L108.562963,151.848015 C93.8666667,136.677645 74.6666667,135.729497 60.6814815,149.951719 C46.4592593,163.936904 47.1703704,182.188756 62.3407407,197.8332 L69.6888889,205.655423 L75.1407407,200.440608 L80.3555556,195.46283 L73.4814815,187.403571 Z" id="路径" fill="url(#linearGradient-2)" transform="translate(83.3096, 172.7536) scale(-1, 1) rotate(-180) translate(-83.3096, -172.7536)"></path>
                <path d="M162.862362,97.6875251 C154.566065,88.2060437 153.617917,77.776414 160.491991,70.90234 C167.840139,63.5541918 179.454954,64.739377 187.751251,73.2727103 L194.625325,80.3838214 L200.077177,75.1690066 L205.529028,69.9541918 L197.943843,62.1319696 C183.247547,46.9615992 164.047547,46.0134511 150.062362,60.2356733 C135.840139,74.2208585 136.551251,92.4727103 151.721621,108.117155 L159.069769,115.939377 L164.521621,110.724562 L169.736436,105.746784 L162.862362,97.6875251 Z" id="路径" fill="url(#linearGradient-2)" transform="translate(172.6904, 83.0376) scale(-1, 1) rotate(-360) translate(-172.6904, -83.0376)"></path>
                <path d="M204.088889,182.662287 C212.148148,158.247472 188.681481,133.832657 164.266667,141.180806 C158.103704,143.077102 149.096296,150.188213 136.296296,162.988213 L117.57037,181.951176 L122.785185,187.165991 L128,192.380806 L146.488889,174.128954 C161.659259,158.958583 166.162963,155.877102 172.562963,155.877102 C189.62963,155.877102 195.555556,175.314139 182.518519,187.877102 L175.407407,194.751176 L180.622222,200.203028 L185.837037,205.65488 L193.659259,198.069695 C197.925926,194.040065 202.666667,186.928954 204.088889,182.662287 Z" id="路径" fill="url(#linearGradient-1)" transform="translate(161.6376, 172.7534) scale(-1, 1) rotate(-180) translate(-161.6376, -172.7534)"></path>
            </g>
        </g>
    </g>
</svg>